<?xml version="1.0" standalone="no"?>
<!DOCTYPE svg PUBLIC "-//W3C//DTD SVG 20010904//EN"
 "http://www.w3.org/TR/2001/REC-SVG-20010904/DTD/svg10.dtd">
<svg version="1.0" xmlns="http://www.w3.org/2000/svg"
 width="64.000000pt" height="64.000000pt" viewBox="0 0 64.000000 64.000000"
 preserveAspectRatio="xMidYMid meet">

<g transform="translate(0.000000,64.000000) scale(0.100000,-0.100000)"
fill="#000000" stroke="none">
<path d="M290 602 c-97 -13 -184 -74 -225 -157 -28 -56 -28 -194 0 -250 67
-137 244 -197 381 -130 169 83 211 304 85 448 -54 60 -162 101 -241 89z m123
-38 c51 -17 117 -75 143 -126 9 -17 19 -60 22 -94 12 -152 -89 -271 -241 -282
-192 -15 -334 189 -253 363 26 57 99 127 148 142 50 16 129 15 181 -3z"/>
<path d="M237 546 c-37 -14 -81 -45 -73 -53 2 -2 25 8 51 22 65 34 143 34 211
0 56 -28 54 -28 54 -17 0 5 -18 19 -41 31 -52 29 -148 37 -202 17z"/>
<path d="M127 462 c-23 -25 -47 -98 -47 -141 0 -49 26 -124 51 -147 25 -23 24
-15 -6 42 -35 65 -34 143 0 209 28 51 28 66 2 37z"/>
<path d="M490 478 c0 -2 11 -25 25 -52 34 -67 34 -145 0 -212 -29 -56 -28 -54
-16 -54 5 0 21 23 35 52 19 37 26 68 26 108 0 40 -7 71 -26 108 -14 29 -30 52
-35 52 -5 0 -9 -1 -9 -2z"/>
<path d="M183 125 c58 -51 179 -58 257 -14 22 13 40 26 40 31 0 11 2 11 -54
-17 -68 -34 -146 -34 -210 0 -59 31 -69 31 -33 0z"/>
</g>
</svg>
